# xmcd CD database file
#
# Track frame offsets:
#	150
#	16817
#	37195
#
# Disc length: 717 seconds
#
# Revision: 0
# Processed by: cddbd v1.5PL3 Copyright (c) Steve Scherf et al.
# Submitted via: CDex 1.50
#
DISCID=1c02cb03
DTITLE=カントリー娘。に紺野と藤本(モーニング娘。) - 浮気なハニーパイ
DYEAR=2003
DGENRE=JPop
TTITLE0=浮気なハニーパイ
TTITLE1=恋がステキな季節 (2003Version)
TTITLE2=浮気なハニーパイ (Instrumental)
EXTD=YEAR: 2003
EXTT0=
EXTT1=
EXTT2=
PLAYORDER=
